<?xml version="1.0" encoding="utf-8"?>
<!-- Generator: Adobe Illustrator 28.0.0, SVG Export Plug-In . SVG Version: 6.00 Build 0)  -->
<svg version="1.1" id="Layer_1" xmlns="http://www.w3.org/2000/svg" xmlns:xlink="http://www.w3.org/1999/xlink" x="0px" y="0px"
	 viewBox="0 0 435.8 493.6" style="enable-background:new 0 0 435.8 493.6;" xml:space="preserve">
<style type="text/css">
	.st0{fill:#FFFFFF;}
	.st1{fill:#0F1729;}
	.st2{fill:#6C56FF;stroke:#6C56FF;stroke-miterlimit:10;}
	.st3{font-family:'Inter-Regular';}
	.st4{font-size:27px;}
	.st5{fill:#B5ABFF;}
	.st6{fill:none;stroke:#FFFFFF;stroke-width:3;stroke-linecap:round;stroke-linejoin:round;}
</style>
<rect x="-0.1" y="-0.1" class="st0" width="435.1" height="493.6"/>
<path class="st1" d="M435.6,67.8l0-51.2c0-8.4-6.8-15.2-15.2-15.2L18.2,0.7C9.8,0.7,3,7.5,3,15.9l0.1,51.8L435.6,67.8L435.6,67.8z"
	/>
<path class="st2" d="M53.9,100.9h137.5c8.4,0,15.3,6.9,15.3,15.3v137.5c0,8.4-6.9,15.3-15.3,15.3H53.9c-8.4,0-15.3-6.9-15.3-15.3
	V116.2C38.6,107.8,45.5,100.9,53.9,100.9z"/>
<text transform="matrix(1 0 0 1 65.25 242.36)" class="st0 st3 st4">Module 1</text>
<path class="st2" d="M242.1,100.9h137.5c8.4,0,15.3,6.9,15.3,15.3v137.5c0,8.4-6.9,15.3-15.3,15.3H242.1c-8.4,0-15.3-6.9-15.3-15.3
	V116.2C226.8,107.8,233.6,100.9,242.1,100.9z"/>
<text transform="matrix(1 0 0 1 251.2 242.36)" class="st0 st3 st4">Module 2</text>
<path class="st5" d="M53.9,290.5h137.5c8.4,0,15.3,6.9,15.3,15.3v137.5c0,8.4-6.9,15.3-15.3,15.3H53.9c-8.4,0-15.3-6.9-15.3-15.3
	V305.8C38.6,297.4,45.5,290.5,53.9,290.5z"/>
<path class="st6" d="M90,356.5l31.5,15.7c0.4,0.2,0.6,0.3,0.9,0.4c0.2,0,0.4,0,0.6,0c0.2,0,0.4-0.1,0.9-0.4l31.5-15.7 M90,372.8
	l31.5,15.7c0.4,0.2,0.6,0.3,0.9,0.4c0.2,0,0.4,0,0.6,0c0.2,0,0.4-0.1,0.9-0.4l31.5-15.7 M90,340.2l31.5-15.7
	c0.4-0.2,0.6-0.3,0.9-0.4c0.2,0,0.4,0,0.6,0c0.2,0,0.4,0.1,0.9,0.4l31.5,15.7l-31.5,15.7c-0.4,0.2-0.6,0.3-0.9,0.4
	c-0.2,0-0.4,0-0.6,0c-0.2,0-0.4-0.1-0.9-0.4C121.5,355.9,90,340.2,90,340.2z"/>
<text transform="matrix(1 0 0 1 61.43 431.97)" class="st0 st3 st4">Se</text>
<text transform="matrix(1 0 0 1 94.37 431.97)" class="st0 st3 st4">r</text>
<text transform="matrix(1 0 0 1 104.88 431.97)" class="st0 st3 st4">v</text>
<text transform="matrix(1 0 0 1 120.84 431.97)" class="st0 st3 st4">ice A</text>
<path class="st5" d="M242.1,290.5h137.5c8.4,0,15.3,6.9,15.3,15.3v137.5c0,8.4-6.9,15.3-15.3,15.3H242.1c-8.4,0-15.3-6.9-15.3-15.3
	V305.8C226.8,297.4,233.6,290.5,242.1,290.5z"/>
<path class="st6" d="M278.2,356.5l31.5,15.7c0.4,0.2,0.6,0.3,0.9,0.4c0.2,0,0.4,0,0.6,0c0.2,0,0.4-0.1,0.9-0.4l31.5-15.7
	 M278.2,372.8l31.5,15.7c0.4,0.2,0.6,0.3,0.9,0.4c0.2,0,0.4,0,0.6,0c0.2,0,0.4-0.1,0.9-0.4l31.5-15.7 M278.2,340.2l31.5-15.7
	c0.4-0.2,0.6-0.3,0.9-0.4c0.2,0,0.4,0,0.6,0c0.2,0,0.4,0.1,0.9,0.4l31.5,15.7L312,355.9c-0.4,0.2-0.6,0.3-0.9,0.4
	c-0.2,0-0.4,0-0.6,0c-0.2,0-0.4-0.1-0.9-0.4L278.2,340.2z"/>
<text transform="matrix(1 0 0 1 249.9299 431.97)" class="st0 st3 st4">Se</text>
<text transform="matrix(1 0 0 1 282.87 431.97)" class="st0 st3 st4">r</text>
<text transform="matrix(1 0 0 1 293.38 431.97)" class="st0 st3 st4">v</text>
<text transform="matrix(1 0 0 1 309.34 431.97)" class="st0 st3 st4">ice B</text>
<path class="st6" d="M112.7,139.3h-12.1c-1.8,0-2.7,0-3.3,0.4c-0.6,0.3-1.1,0.8-1.4,1.4c-0.3,0.7-0.3,1.6-0.3,3.3v12.1
	c0,1.8,0,2.7,0.3,3.3c0.3,0.6,0.8,1.1,1.4,1.4c0.7,0.4,1.6,0.4,3.3,0.4h12.1c1.8,0,2.7,0,3.3-0.4c0.6-0.3,1.1-0.8,1.4-1.4
	c0.3-0.7,0.3-1.6,0.3-3.3v-12.1c0-1.8,0-2.7-0.3-3.3c-0.3-0.6-0.8-1.1-1.4-1.4C115.4,139.3,114.5,139.3,112.7,139.3z"/>
<path class="st6" d="M147.6,139.3h-12.1c-1.8,0-2.7,0-3.3,0.4c-0.6,0.3-1.1,0.8-1.4,1.4c-0.4,0.7-0.4,1.6-0.4,3.3v12.1
	c0,1.8,0,2.7,0.4,3.3c0.3,0.6,0.8,1.1,1.4,1.4c0.7,0.4,1.6,0.4,3.3,0.4h12.1c1.8,0,2.7,0,3.3-0.4c0.6-0.3,1.1-0.8,1.4-1.4
	c0.4-0.7,0.4-1.6,0.4-3.3v-12.1c0-1.8,0-2.7-0.4-3.3c-0.3-0.6-0.8-1.1-1.4-1.4C150.3,139.3,149.4,139.3,147.6,139.3z"/>
<path class="st6" d="M147.6,174.2h-12.1c-1.8,0-2.7,0-3.3,0.4c-0.6,0.3-1.1,0.8-1.4,1.4c-0.4,0.7-0.4,1.6-0.4,3.3v12.1
	c0,1.8,0,2.7,0.4,3.3c0.3,0.6,0.8,1.1,1.4,1.4c0.7,0.4,1.6,0.4,3.3,0.4h12.1c1.8,0,2.7,0,3.3-0.4c0.6-0.3,1.1-0.8,1.4-1.4
	c0.4-0.7,0.4-1.6,0.4-3.3v-12.1c0-1.8,0-2.7-0.4-3.3c-0.3-0.6-0.8-1.1-1.4-1.4C150.3,174.2,149.4,174.2,147.6,174.2z"/>
<path class="st6" d="M112.7,174.2h-12.1c-1.8,0-2.7,0-3.3,0.4c-0.6,0.3-1.1,0.8-1.4,1.4c-0.3,0.7-0.3,1.6-0.3,3.3v12.1
	c0,1.8,0,2.7,0.3,3.3c0.3,0.6,0.8,1.1,1.4,1.4c0.7,0.4,1.6,0.4,3.3,0.4h12.1c1.8,0,2.7,0,3.3-0.4c0.6-0.3,1.1-0.8,1.4-1.4
	c0.3-0.7,0.3-1.6,0.3-3.3v-12.1c0-1.8,0-2.7-0.3-3.3c-0.3-0.6-0.8-1.1-1.4-1.4C115.4,174.2,114.5,174.2,112.7,174.2z"/>
<path class="st6" d="M297.9,139.3h-12c-1.8,0-2.7,0-3.3,0.4c-0.6,0.3-1.1,0.8-1.4,1.4c-0.4,0.7-0.4,1.6-0.4,3.3v12.1
	c0,1.8,0,2.7,0.4,3.3c0.3,0.6,0.8,1.1,1.4,1.4c0.7,0.4,1.6,0.4,3.3,0.4h12c1.8,0,2.7,0,3.3-0.4c0.6-0.3,1.1-0.8,1.4-1.4
	c0.4-0.7,0.4-1.6,0.4-3.3v-12.1c0-1.8,0-2.7-0.4-3.3c-0.3-0.6-0.8-1.1-1.4-1.4C300.6,139.3,299.7,139.3,297.9,139.3z"/>
<path class="st6" d="M332.8,139.3h-12c-1.8,0-2.7,0-3.3,0.4c-0.6,0.3-1.1,0.8-1.4,1.4c-0.4,0.7-0.4,1.6-0.4,3.3v12.1
	c0,1.8,0,2.7,0.4,3.3c0.3,0.6,0.8,1.1,1.4,1.4c0.7,0.4,1.6,0.4,3.3,0.4h12c1.8,0,2.7,0,3.3-0.4c0.6-0.3,1.1-0.8,1.4-1.4
	c0.4-0.7,0.4-1.6,0.4-3.3v-12.1c0-1.8,0-2.7-0.4-3.3c-0.3-0.6-0.8-1.1-1.4-1.4C335.4,139.3,334.5,139.3,332.8,139.3z"/>
<path class="st6" d="M332.8,174.2h-12c-1.8,0-2.7,0-3.3,0.4c-0.6,0.3-1.1,0.8-1.4,1.4c-0.4,0.7-0.4,1.6-0.4,3.3v12.1
	c0,1.8,0,2.7,0.4,3.3c0.3,0.6,0.8,1.1,1.4,1.4c0.7,0.4,1.6,0.4,3.3,0.4h12c1.8,0,2.7,0,3.3-0.4c0.6-0.3,1.1-0.8,1.4-1.4
	c0.4-0.7,0.4-1.6,0.4-3.3v-12.1c0-1.8,0-2.7-0.4-3.3c-0.3-0.6-0.8-1.1-1.4-1.4C335.4,174.2,334.5,174.2,332.8,174.2z"/>
<path class="st6" d="M297.9,174.2h-12c-1.8,0-2.7,0-3.3,0.4c-0.6,0.3-1.1,0.8-1.4,1.4c-0.4,0.7-0.4,1.6-0.4,3.3v12.1
	c0,1.8,0,2.7,0.4,3.3c0.3,0.6,0.8,1.1,1.4,1.4c0.7,0.4,1.6,0.4,3.3,0.4h12c1.8,0,2.7,0,3.3-0.4c0.6-0.3,1.1-0.8,1.4-1.4
	c0.4-0.7,0.4-1.6,0.4-3.3v-12.1c0-1.8,0-2.7-0.4-3.3c-0.3-0.6-0.8-1.1-1.4-1.4C300.6,174.2,299.7,174.2,297.9,174.2z"/>
<rect y="-0.1" class="st1" width="435.8" height="68.4"/>
<text transform="matrix(1 0 0 1 153.23 46.34)" class="st0 st3 st4">SOLUTION</text>
</svg>
