<?xml version="1.0" encoding="utf-8"?>
<!-- Generator: Adobe Illustrator 28.0.0, SVG Export Plug-In . SVG Version: 6.00 Build 0)  -->
<svg version="1.1" id="Layer_1" xmlns="http://www.w3.org/2000/svg" xmlns:xlink="http://www.w3.org/1999/xlink" x="0px" y="0px"
	 viewBox="0 0 2074 761.2" style="enable-background:new 0 0 2074 761.2;" xml:space="preserve">
<style type="text/css">
	.st0{fill:#FFFFFF;}
	.st1{fill:none;stroke:#4723FF;stroke-width:6;stroke-miterlimit:10;}
	.st2{fill:none;stroke:#B5ABFF;stroke-width:6;stroke-miterlimit:10;}
	.st3{fill:#FFFFFF;stroke:#4723FF;stroke-width:6;stroke-miterlimit:10;}
	.st4{fill:#4834FC;}
	.st5{fill:none;stroke:#FFFFFF;stroke-width:8.87;stroke-linecap:round;stroke-linejoin:round;}
	.st6{fill:none;stroke:#FFFFFF;stroke-width:5.5422;stroke-linecap:round;stroke-linejoin:round;}
	.st7{fill:#E5E9F1;}
	.st8{fill:#4723FF;}
	.st9{fill:none;stroke:#6C56FF;stroke-width:11;stroke-linecap:round;stroke-miterlimit:10;}
	.st10{fill:#B5ABFF;}
	.st11{fill:none;stroke:#D0D4F6;stroke-width:1.5;stroke-miterlimit:10;}
	.st12{fill:none;stroke:#B5ABFF;stroke-width:1.5;stroke-miterlimit:10;}
	.st13{fill:#0F1729;}
	.st14{font-family:'Inter-Regular';}
	.st15{font-size:20px;}
	.st16{font-family:'Inter-Medium';}
	.st17{font-size:19px;}
	.st18{font-size:22px;}
	.st19{fill:#FFFFFF;stroke:#4723FF;stroke-width:3;stroke-miterlimit:10;}
	.st20{fill:none;stroke:#6C56FF;stroke-width:1.5;stroke-linecap:round;stroke-linejoin:round;}
	.st21{fill:#4723FF;stroke:#6C56FF;stroke-width:1.5172;stroke-miterlimit:10;}
	.st22{font-family:'Inter-SemiBold';}
	.st23{font-size:31.0856px;}
	.st24{fill:#4723FF;stroke:#6C56FF;stroke-width:1.574;stroke-miterlimit:10;}
	.st25{font-size:32.2485px;}
	.st26{opacity:0.65;fill:#FFFFFF;}
	.st27{font-size:58.5001px;}
</style>
<rect x="1" y="1.3" class="st0" width="2072" height="759"/>
<line class="st1" x1="312.8" y1="298.2" x2="214" y2="298.2"/>
<path class="st1" d="M453.3,477.6l25.8,0.2c49.6,0,89.8-40.2,89.8-89.8s-40.2-89.8-89.8-89.8h-89.2"/>
<line class="st1" x1="274.5" y1="476.7" x2="377.3" y2="477.4"/>
<path class="st1" d="M264.4,655.9h-89.4c-49.6,0-89.8-40.2-89.8-89.8s40.2-89.8,89.8-89.8l23.5,0.2"/>
<line class="st1" x1="441.7" y1="655.9" x2="340.4" y2="655.9"/>
<circle class="st1" cx="351" cy="297.4" r="38.7"/>
<circle class="st2" cx="414.1" cy="475.8" r="38.7"/>
<circle class="st3" cx="568.5" cy="389" r="38.7"/>
<circle class="st3" cx="85.8" cy="573.9" r="38.7"/>
<circle class="st1" cx="237.3" cy="475.8" r="38.7"/>
<circle class="st1" cx="302" cy="656.3" r="38.7"/>
<path class="st4" d="M148.2,229.3L148.2,229.3c37.1,0,67.2,30.1,67.2,67.2l0,0c0,37.1-30.1,67.2-67.2,67.2l0,0
	c-37.1,0-67.2-30.1-67.2-67.2l0,0C81,259.4,111.1,229.3,148.2,229.3z"/>
<path class="st5" d="M113.9,296.5h65 M178.9,296.5l-23.7,23.7 M178.9,296.5l-23.7-23.7"/>
<path class="st4" d="M477.1,615.1L477.1,615.1c23.2,0,42,18.8,42,42l0,0c0,23.2-18.8,42-42,42l0,0c-23.2,0-42-18.8-42-42l0,0
	C435.1,633.9,453.9,615.1,477.1,615.1z"/>
<path class="st6" d="M455.6,657.1h40.6 M496.3,657.1l-14.8,14.8 M496.3,657.1l-14.8-14.8"/>
<g>
	<path class="st7" d="M1183.9,358.2l-341.3,1c-7.1,0-12.8-5.8-12.8-12.9l0.4-81.4c0.1-7,5.7-12.6,12.7-12.7l340.8-0.5
		c7,0,12.8,5.7,12.8,12.7l0,81C1196.6,352.5,1191,358.2,1183.9,358.2z"/>
	<path class="st8" d="M1197,298.1l0-32.2c0-8.4-6.8-15.2-15.2-15.2L845.4,250c-8.4,0-15.3,6.8-15.2,15.3l0.1,32.8H1197z"/>
</g>
<g>
	<line class="st9" x1="912.9" y1="260" x2="912.9" y2="236.7"/>
	<line class="st9" x1="1113.9" y1="260" x2="1113.9" y2="236.7"/>
</g>
<g>
	<rect x="333.4" y="280" class="st10" width="5" height="5"/>
	<rect x="343.8" y="280" class="st10" width="5" height="5"/>
	<rect x="354.2" y="280" class="st10" width="5" height="5"/>
	<rect x="364.5" y="280" class="st10" width="5" height="5"/>
	<rect x="333.4" y="289.8" class="st10" width="5" height="5"/>
	<rect x="343.8" y="289.8" class="st10" width="5" height="5"/>
	<rect x="354.2" y="289.8" class="st10" width="5" height="5"/>
	<rect x="364.5" y="289.8" class="st10" width="5" height="5"/>
	<rect x="333.4" y="299.5" class="st10" width="5" height="5"/>
	<rect x="343.8" y="299.5" class="st10" width="5" height="5"/>
	<rect x="354.2" y="299.5" class="st10" width="5" height="5"/>
	<rect x="364.5" y="299.5" class="st10" width="5" height="5"/>
	<rect x="333.4" y="309.2" class="st10" width="5" height="5"/>
	<rect x="343.8" y="309.2" class="st10" width="5" height="5"/>
	<rect x="354.2" y="309.2" class="st10" width="5" height="5"/>
	<rect x="364.5" y="309.2" class="st10" width="5" height="5"/>
</g>
<g>
	<rect x="550.8" y="373.2" class="st10" width="5" height="5"/>
	<rect x="561.2" y="373.2" class="st10" width="5" height="5"/>
	<rect x="571.5" y="373.2" class="st10" width="5" height="5"/>
	<rect x="581.9" y="373.2" class="st10" width="5" height="5"/>
	<rect x="550.8" y="382.9" class="st10" width="5" height="5"/>
	<rect x="561.2" y="382.9" class="st10" width="5" height="5"/>
	<rect x="571.5" y="382.9" class="st10" width="5" height="5"/>
	<rect x="581.9" y="382.9" class="st10" width="5" height="5"/>
	<rect x="550.8" y="392.7" class="st10" width="5" height="5"/>
	<rect x="561.2" y="392.7" class="st10" width="5" height="5"/>
	<rect x="571.5" y="392.7" class="st10" width="5" height="5"/>
	<rect x="581.9" y="392.7" class="st10" width="5" height="5"/>
	<rect x="550.8" y="402.4" class="st10" width="5" height="5"/>
	<rect x="561.2" y="402.4" class="st10" width="5" height="5"/>
	<rect x="571.5" y="402.4" class="st10" width="5" height="5"/>
	<rect x="581.9" y="402.4" class="st10" width="5" height="5"/>
</g>
<g>
	<rect x="396.1" y="459.6" class="st10" width="5" height="5"/>
	<rect x="406.5" y="459.6" class="st10" width="5" height="5"/>
	<rect x="416.9" y="459.6" class="st10" width="5" height="5"/>
	<rect x="427.2" y="459.6" class="st10" width="5" height="5"/>
	<rect x="396.1" y="469.4" class="st10" width="5" height="5"/>
	<rect x="406.5" y="469.4" class="st10" width="5" height="5"/>
	<rect x="416.9" y="469.4" class="st10" width="5" height="5"/>
	<rect x="427.2" y="469.4" class="st10" width="5" height="5"/>
	<rect x="396.1" y="479.1" class="st10" width="5" height="5"/>
	<rect x="406.5" y="479.1" class="st10" width="5" height="5"/>
	<rect x="416.9" y="479.1" class="st10" width="5" height="5"/>
	<rect x="427.2" y="479.1" class="st10" width="5" height="5"/>
	<rect x="396.1" y="488.9" class="st10" width="5" height="5"/>
	<rect x="406.5" y="488.9" class="st10" width="5" height="5"/>
	<rect x="416.9" y="488.9" class="st10" width="5" height="5"/>
	<rect x="427.2" y="488.9" class="st10" width="5" height="5"/>
</g>
<g>
	<rect x="219" y="459.6" class="st10" width="5" height="5"/>
	<rect x="229.3" y="459.6" class="st10" width="5" height="5"/>
	<rect x="239.7" y="459.6" class="st10" width="5" height="5"/>
	<rect x="250.1" y="459.6" class="st10" width="5" height="5"/>
	<rect x="219" y="469.4" class="st10" width="5" height="5"/>
	<rect x="229.3" y="469.4" class="st10" width="5" height="5"/>
	<rect x="239.7" y="469.4" class="st10" width="5" height="5"/>
	<rect x="250.1" y="469.4" class="st10" width="5" height="5"/>
	<rect x="219" y="479.1" class="st10" width="5" height="5"/>
	<rect x="229.3" y="479.1" class="st10" width="5" height="5"/>
	<rect x="239.7" y="479.1" class="st10" width="5" height="5"/>
	<rect x="250.1" y="479.1" class="st10" width="5" height="5"/>
	<rect x="219" y="488.9" class="st10" width="5" height="5"/>
	<rect x="229.3" y="488.9" class="st10" width="5" height="5"/>
	<rect x="239.7" y="488.9" class="st10" width="5" height="5"/>
	<rect x="250.1" y="488.9" class="st10" width="5" height="5"/>
</g>
<g>
	<rect x="68" y="558.9" class="st10" width="5" height="5"/>
	<rect x="78.3" y="558.9" class="st10" width="5" height="5"/>
	<rect x="88.7" y="558.9" class="st10" width="5" height="5"/>
	<rect x="99.1" y="558.9" class="st10" width="5" height="5"/>
	<rect x="68" y="568.6" class="st10" width="5" height="5"/>
	<rect x="78.3" y="568.6" class="st10" width="5" height="5"/>
	<rect x="88.7" y="568.6" class="st10" width="5" height="5"/>
	<rect x="99.1" y="568.6" class="st10" width="5" height="5"/>
	<rect x="68" y="578.4" class="st10" width="5" height="5"/>
	<rect x="78.3" y="578.4" class="st10" width="5" height="5"/>
	<rect x="88.7" y="578.4" class="st10" width="5" height="5"/>
	<rect x="99.1" y="578.4" class="st10" width="5" height="5"/>
	<rect x="68" y="588.1" class="st10" width="5" height="5"/>
	<rect x="78.3" y="588.1" class="st10" width="5" height="5"/>
	<rect x="88.7" y="588.1" class="st10" width="5" height="5"/>
	<rect x="99.1" y="588.1" class="st10" width="5" height="5"/>
</g>
<g>
	<rect x="284.1" y="641.1" class="st10" width="5" height="5"/>
	<rect x="294.5" y="641.1" class="st10" width="5" height="5"/>
	<rect x="304.8" y="641.1" class="st10" width="5" height="5"/>
	<rect x="315.2" y="641.1" class="st10" width="5" height="5"/>
	<rect x="284.1" y="650.8" class="st10" width="5" height="5"/>
	<rect x="294.5" y="650.8" class="st10" width="5" height="5"/>
	<rect x="304.8" y="650.8" class="st10" width="5" height="5"/>
	<rect x="315.2" y="650.8" class="st10" width="5" height="5"/>
	<rect x="284.1" y="660.6" class="st10" width="5" height="5"/>
	<rect x="294.5" y="660.6" class="st10" width="5" height="5"/>
	<rect x="304.8" y="660.6" class="st10" width="5" height="5"/>
	<rect x="315.2" y="660.6" class="st10" width="5" height="5"/>
	<rect x="284.1" y="670.3" class="st10" width="5" height="5"/>
	<rect x="294.5" y="670.3" class="st10" width="5" height="5"/>
	<rect x="304.8" y="670.3" class="st10" width="5" height="5"/>
	<rect x="315.2" y="670.3" class="st10" width="5" height="5"/>
</g>
<path class="st11" d="M450.3,483.1h253.1c20.5,0,37-16.6,37-37v-96.8c0-18.9,15.3-34.2,34.2-34.2h46.6"/>
<path class="st12" d="M1217.1,483.1h79.2c20.5,0,37-16.6,37-37v-52c0-18.9,15.3-34.2,34.2-34.2h46.6"/>
<path class="st11" d="M450.3,483.2h253.1c20.5,0,37,16.6,37,37V617c0,18.9,15.3,34.2,34.2,34.2h46.6"/>
<path class="st12" d="M1530.9,458.1v-10.9c0-13-10.5-23.5-23.5-23.5h-61.5c-12,0-21.7-9.7-21.7-21.7v-8.5"/>
<path class="st12" d="M1530.9,464.3v-17.1c0-13,10.5-23.5,23.5-23.5h61.5c12,0,21.7-9.7,21.7-21.7v-8.5"/>
<line class="st12" x1="450" y1="482.9" x2="820.8" y2="482.9"/>
<text transform="matrix(1 0 0 1 916.7969 334.1677)" class="st13 st14 st15">7th March - 15th March</text>
<text transform="matrix(1 0 0 1 970.1339 284.013)" class="st0 st16 st17">Project A:</text>
<g>
	<path class="st7" d="M1183.9,526.3l-341.3,1c-7.1,0-12.8-5.8-12.8-12.9l0.4-81.4c0.1-7,5.7-12.6,12.7-12.7l340.8-0.5
		c7,0,12.8,5.7,12.8,12.7l0,81C1196.6,520.6,1191,526.3,1183.9,526.3z"/>
	<path class="st8" d="M1197,466.3l0-32.2c0-8.4-6.8-15.2-15.2-15.2l-336.4-0.6c-8.4,0-15.3,6.8-15.2,15.3l0.1,32.8H1197z"/>
</g>
<g>
	<line class="st9" x1="912.9" y1="428.1" x2="912.9" y2="404.8"/>
	<line class="st9" x1="1113.9" y1="428.1" x2="1113.9" y2="404.8"/>
</g>
<text transform="matrix(1 0 0 1 916.7969 502.2851)" class="st13 st14 st15">10th March - 14th March</text>
<text transform="matrix(1 0 0 1 970.1339 452.1303)" class="st0 st16 st17">Project B:</text>
<text transform="matrix(1 0 0 1 1675.8505 295.1466)" class="st13 st14 st18">Project B:</text>
<g>
	<path class="st7" d="M1183.9,698.1l-341.3,1c-7.1,0-12.8-5.8-12.8-12.9l0.4-81.4c0.1-7,5.7-12.6,12.7-12.7l340.8-0.5
		c7,0,12.8,5.7,12.8,12.7l0,81C1196.6,692.4,1191,698.1,1183.9,698.1z"/>
	<path class="st8" d="M1197,638l0-32.2c0-8.4-6.8-15.2-15.2-15.2l-336.4-0.6c-8.4,0-15.3,6.8-15.2,15.3l0.1,32.8H1197z"/>
</g>
<g>
	<line class="st9" x1="912.9" y1="599.8" x2="912.9" y2="576.6"/>
	<line class="st9" x1="1113.9" y1="599.8" x2="1113.9" y2="576.6"/>
</g>
<text transform="matrix(1 0 0 1 916.7969 674.0621)" class="st13 st14 st15">8th March - 20th April</text>
<text transform="matrix(1 0 0 1 970.1339 623.9073)" class="st0 st16 st17">Project C:</text>
<rect x="1422.9" y="330.3" class="st19" width="608.8" height="53.9"/>
<text transform="matrix(1 0 0 1 1467.5164 366.5189)" class="st8 st14 st18">PLAN</text>
<text transform="matrix(1 0 0 1 1791.5291 366.5189)" class="st8 st14 st18">TEST</text>
<text transform="matrix(1 0 0 1 1914.2972 366.5189)" class="st8 st14 st18">RELEASE</text>
<line class="st19" x1="1549.1" y1="330.3" x2="1549.1" y2="383.2"/>
<rect x="1422.9" y="563.7" class="st19" width="608.8" height="53.9"/>
<line class="st19" x1="1828.6" y1="561.6" x2="1828.6" y2="614.4"/>
<text transform="matrix(1 0 0 1 1594.8904 366.5189)" class="st8 st14 st18">IMPLEMENT</text>
<line class="st19" x1="1745.1" y1="330.3" x2="1745.1" y2="383.2"/>
<line class="st19" x1="1867.7" y1="330.3" x2="1867.7" y2="383.2"/>
<path class="st20" d="M1895.2,362.5l-3-3 M1895.2,362.5c1.4-0.5,2.7-1.2,4-2 M1895.2,362.5v5c0,0,3-0.6,4-2c1.1-1.6,0-5,0-5
	 M1892.2,359.5c0.5-1.4,1.2-2.7,2-4c1.2-1.9,2.8-3.4,4.7-4.5c1.9-1.1,4.1-1.6,6.3-1.6c0,2.7-0.8,7.5-6,11 M1892.2,359.5h-5
	c0,0,0.5-3,2-4c1.6-1.1,5,0,5,0 M1887.7,364c-1.5,1.3-2,5-2,5s3.7-0.5,5-2c0.7-0.8,0.7-2.1-0.1-2.9c-0.4-0.4-0.9-0.6-1.4-0.6
	S1888.1,363.6,1887.7,364z"/>
<path class="st20" d="M1770.6,359.8h6 M1768.6,363.8l4.3-9.4c0.2-0.5,0.3-0.8,0.5-0.8c0.1-0.1,0.3-0.1,0.4,0
	c0.2,0.1,0.3,0.3,0.5,0.8l4.3,9.4 M1782.6,367.8h-18 M1782.6,349.8h-18"/>
<path class="st20" d="M1569.5,352.8l4.5,4.5 M1569.5,352.8h-3l-1-3l1-1l3,1V352.8z M1582.7,349.5l-2.6,2.6c-0.4,0.4-0.6,0.6-0.7,0.8
	c-0.1,0.2-0.1,0.4,0,0.6c0.1,0.2,0.3,0.4,0.7,0.8l0.2,0.2c0.4,0.4,0.6,0.6,0.8,0.7c0.2,0.1,0.4,0.1,0.6,0c0.2-0.1,0.4-0.3,0.8-0.7
	l2.5-2.5c0.3,0.6,0.4,1.3,0.4,2.1c0,3-2.5,5.5-5.5,5.5c-0.4,0-0.7,0-1.1-0.1c-0.5-0.1-0.7-0.1-0.9-0.1c-0.2,0-0.2,0-0.4,0.1
	c-0.1,0.1-0.3,0.2-0.5,0.5l-7.2,7.2c-0.8,0.8-2.2,0.8-3,0c-0.8-0.8-0.8-2.2,0-3l7.2-7.2c0.3-0.3,0.4-0.4,0.5-0.5
	c0.1-0.1,0.1-0.2,0.1-0.4c0-0.1,0-0.4-0.1-0.9c-0.1-0.3-0.1-0.7-0.1-1.1c0-3,2.5-5.5,5.5-5.5C1581,348.8,1581.9,349.1,1582.7,349.5z
	 M1575.5,361.8l5.5,5.5c0.8,0.8,2.2,0.8,3,0s0.8-2.2,0-3l-4.5-4.5c-0.3,0-0.6-0.1-0.9-0.2c-0.4-0.1-0.8,0-1.1,0.3L1575.5,361.8z"/>
<path class="st20" d="M1458.1,359.1v-5.7c0-1.7,0-2.5-0.3-3.2c-0.3-0.6-0.7-1-1.3-1.3c-0.6-0.3-1.5-0.3-3.2-0.3h-6.4
	c-1.7,0-2.5,0-3.2,0.3c-0.6,0.3-1,0.7-1.3,1.3c-0.3,0.6-0.3,1.5-0.3,3.2v10.4c0,1.7,0,2.5,0.3,3.2c0.3,0.6,0.7,1,1.3,1.3
	c0.6,0.3,1.5,0.3,3.2,0.3h3.2 M1452.1,357.6h-6 M1448.1,361.6h-2 M1454.1,353.6h-8 M1452.6,365.6l2,2l4.5-4.5"/>
<text transform="matrix(1 0 0 1 1483.1177 599.8543)" class="st8 st14 st18">Specify</text>
<text transform="matrix(1 0 0 1 1661.5472 599.8543)" class="st8 st14 st18">Document</text>
<text transform="matrix(1 0 0 1 1869.0059 599.8543)" class="st8 st14 st18">Implement</text>
<line class="st19" x1="1625.4" y1="561.6" x2="1625.4" y2="614.4"/>
<line class="st12" x1="1530.6" y1="495.9" x2="1530.6" y2="557.6"/>
<path class="st21" d="M1677.3,514.2h-296.5c-15.8,0-28.6-12.9-28.6-28.6v0c0-15.8,12.9-28.6,28.6-28.6h296.5
	c15.8,0,28.6,12.9,28.6,28.6v0C1706,501.3,1693.1,514.2,1677.3,514.2z"/>
<text transform="matrix(1 0 0 1 1388.2429 498.1533)"><tspan x="0" y="0" class="st0 st22 st23"> Uniscale</tspan><tspan x="137" y="0" class="st0 st14 st23"> revisions</tspan></text>
<path class="st24" d="M626.2,183.2H89c-15.6,0-28.3-12.7-28.3-28.3v0c0-15.6,12.7-28.3,28.3-28.3h537.2c15.6,0,28.3,12.7,28.3,28.3
	v0C654.5,170.4,641.8,183.2,626.2,183.2z"/>
<text transform="matrix(1 0 0 1 96.6051 167.3619)"><tspan x="0" y="0" class="st0 st22 st25"> Uniscale</tspan><tspan x="142.1" y="0" class="st0 st14 st25">  - Single source of truth</tspan></text>
<rect x="826.2" y="226" class="st26" width="396.4" height="142"/>
<rect x="826.2" y="572.2" class="st26" width="396.4" height="142"/>
<text transform="matrix(1 0 0 1 774.9186 72.4877)" class="st8 st16 st27">Product roadmap</text>
</svg>
